<?xml version="1.0" standalone="no"?>
<!DOCTYPE svg PUBLIC "-//W3C//DTD SVG 20010904//EN"
 "http://www.w3.org/TR/2001/REC-SVG-20010904/DTD/svg10.dtd">
<svg version="1.0" xmlns="http://www.w3.org/2000/svg"
 width="300.000000pt" height="325.000000pt" viewBox="0 0 300.000000 325.000000"
 preserveAspectRatio="xMidYMid meet">

<g transform="translate(0.000000,325.000000) scale(0.100000,-0.100000)"
fill="#000000" stroke="none">
<path d="M1557 3238 c-16 -13 -827 -1550 -827 -1568 0 -6 102 -10 271 -10 254
0 271 -1 264 -17 -3 -10 -153 -304 -332 -653 -560 -1092 -511 -992 -461 -939
33 36 1389 1516 1826 1994 l82 90 -337 7 c-185 4 -345 8 -354 10 -12 2 78 144
347 551 l363 547 -413 0 c-314 0 -416 -3 -429 -12z"/>
<path d="M1175 3085 c-586 -137 -1019 -582 -1147 -1179 -32 -148 -31 -427 1
-576 65 -306 206 -567 423 -782 48 -49 92 -88 98 -88 6 0 33 47 62 104 l51
104 -82 91 c-246 275 -357 585 -337 943 20 365 209 707 517 938 123 92 280
166 447 210 41 11 44 14 100 123 31 62 58 118 60 125 5 19 -79 14 -193 -13z"/>
<path d="M2233 2833 c-22 -32 -49 -74 -61 -94 l-22 -36 63 -44 c83 -58 284
-259 333 -334 90 -138 164 -319 195 -475 8 -39 13 -137 13 -245 -1 -161 -4
-190 -27 -277 -54 -204 -137 -365 -269 -522 -173 -206 -387 -340 -658 -412
-75 -20 -128 -27 -250 -31 -183 -6 -277 7 -456 64 l-117 38 -79 -85 c-43 -46
-78 -87 -78 -91 0 -24 254 -115 405 -146 137 -27 434 -25 572 5 360 78 686
286 907 578 73 97 180 303 220 424 53 162 70 271 70 470 0 152 -4 203 -22 286
-66 306 -206 569 -417 779 -80 80 -242 205 -266 205 -9 0 -34 -26 -56 -57z"/>
</g>
</svg>
